<?xml version="1.0" encoding="UTF-8"?>
<svg width="29px" height="29px" viewBox="0 0 29 29" version="1.1" xmlns="http://www.w3.org/2000/svg" xmlns:xlink="http://www.w3.org/1999/xlink">
    <!-- Generator: Sketch 44.1 (41455) - http://www.bohemiancoding.com/sketch -->
    <title>fb1435b4c0343e90cfd7b9a669f7e48b</title>
    <desc>Created with Sketch.</desc>
    <defs></defs>
    <g id="Page-1" stroke="none" stroke-width="1" fill="none" fill-rule="evenodd">
        <g id="Mobile-Copy-2" transform="translate(-79.000000, -991.000000)" fill-rule="nonzero" fill="#0077B5">
            <g id="fb1435b4c0343e90cfd7b9a669f7e48b" transform="translate(79.000000, 991.000000)">
                <g id="Group" transform="translate(14.203766, 14.813560) scale(-1, 1) rotate(-180.000000) translate(-14.203766, -14.813560) translate(0.025988, 0.635782)">
                    <path d="M12.8974465,28.2845223 C9.5860258,27.9963467 6.48135234,26.5473836 4.12368319,24.1894257 C1.96525368,22.0309962 0.605226522,19.3184494 0.124741344,16.23601 C-0.0378266576,15.2086264 -0.0378266576,13.1388441 0.124741344,12.1114605 C0.753068115,8.08306585 2.91871645,4.66076397 6.25987871,2.41368726 C8.30742702,1.03142611 10.5247622,0.269984159 13.11199,0.0482217696 C17.0959167,-0.291640643 21.2427002,1.2531885 24.1475565,4.16555239 C28.9373931,8.94788142 29.6690935,16.4505535 25.8994216,22.0532301 C24.2731641,24.4703824 22.0780629,26.2517004 19.3874614,27.3235519 C17.3768735,28.1291731 15.033642,28.4765431 12.8974465,28.2845223 Z M9.1130482,21.7058601 C9.55657298,21.5063317 9.76360896,21.3068033 9.97035619,20.8632786 C10.4508414,19.8506214 9.94090337,18.6678887 8.88377823,18.3574791 C8.66952342,18.2910659 8.44025345,18.2390903 8.37384024,18.2390903 C8.30742702,18.2390903 8.07815705,18.2907771 7.86390224,18.3574791 C6.2968391,18.8232378 6.11954469,20.9963938 7.59796062,21.6836262 C8.07093822,21.9053885 8.65479701,21.9128961 9.1130482,21.7058601 Z M9.92617696,11.6237565 L9.92617696,6.4865499 L8.37384024,6.4865499 L6.82150351,6.4865499 L6.82150351,11.6237565 L6.82150351,16.7609631 L8.37384024,16.7609631 L9.92617696,16.7609631 L9.92617696,11.6237565 Z M15.0264232,16.0142476 L15.0264232,15.2678208 L15.403246,15.681604 C16.1130011,16.4577723 17.1920715,16.8198687 18.5373723,16.7387291 C20.414845,16.6203403 21.272153,15.866406 21.6123041,14.0111672 C21.6492645,13.7969124 21.7009513,12.0153057 21.7306929,10.0566934 L21.7751609,6.4865499 L20.1711374,6.4865499 L18.5746214,6.4865499 L18.5746214,9.68708939 C18.5746214,12.9837837 18.5523874,13.2719593 18.2642118,13.6785236 C18.0202154,14.0183861 17.7245322,14.1292673 17.0222847,14.1367748 C16.2608427,14.1367748 15.7953727,13.9814257 15.4774555,13.6193293 C15.0931251,13.1758045 15.0783987,13.0574157 15.0486572,9.65012899 L15.0116968,6.4865499 L13.4668676,6.4865499 L11.9220385,6.4865499 L11.9220385,11.5720697 C11.9220385,14.3735524 11.9442725,16.6870423 11.9737253,16.7092763 C11.9959593,16.7390179 12.6982068,16.7609631 13.526062,16.7609631 L15.0264232,16.7609631 L15.0264232,16.0142476 L15.0264232,16.0142476 Z" id="Shape"></path>
                </g>
            </g>
        </g>
    </g>
</svg>