<?xml version="1.0" encoding="UTF-8"?>
<svg width="29px" height="29px" viewBox="0 0 29 29" version="1.1" xmlns="http://www.w3.org/2000/svg" xmlns:xlink="http://www.w3.org/1999/xlink">
    <!-- Generator: Sketch 44.1 (41455) - http://www.bohemiancoding.com/sketch -->
    <title>Group 2</title>
    <desc>Created with Sketch.</desc>
    <defs></defs>
    <g id="Page-1" stroke="none" stroke-width="1" fill="none" fill-rule="evenodd">
        <g id="Mobile-Copy-2" transform="translate(-30.000000, -991.000000)">
            <g id="Group-2" transform="translate(30.000000, 991.000000)">
                <circle id="Oval-Copy" fill="#22C4FC" cx="14.5" cy="14.5" r="14.5"></circle>
                <path d="M22.4130086,7.91647159 C21.724305,8.40226571 20.9617681,8.77382028 20.1547635,9.01682669 C19.2675461,7.99668805 17.8378112,7.63894787 16.5747125,8.12104661 C15.3116138,8.60314536 14.4838355,9.82253178 14.5019588,11.1743857 L14.5019588,11.8935721 C11.9349417,11.9601345 9.50507035,10.7370992 8.02928177,8.63565793 C8.02928177,8.63565793 5.15253641,15.108335 11.6252135,17.9850804 C10.144069,18.9904786 8.37963837,19.4946017 6.59090909,19.4234531 C13.0635862,23.0193848 20.9746359,19.4234531 20.9746359,11.1528101 C20.9739736,10.9524834 20.9547127,10.7526508 20.917101,10.5558855 C21.6511049,9.83201943 22.1690803,8.9180916 22.4130086,7.91647159 Z" id="Shape-Copy-4" fill="#FFFFFF"></path>
            </g>
        </g>
    </g>
</svg>